<mxfile host="Electron" agent="Mozilla/5.0 (Windows NT 10.0; Win64; x64) AppleWebKit/537.36 (KHTML, like Gecko) draw.io/24.7.8 Chrome/128.0.6613.36 Electron/32.0.1 Safari/537.36" version="24.7.8">
  <diagram name="Page-1" id="Nab023gGPDAdvNxhOleP">
    <mxGraphModel dx="2145" dy="758" grid="1" gridSize="10" guides="1" tooltips="1" connect="1" arrows="1" fold="1" page="1" pageScale="1" pageWidth="850" pageHeight="1100" math="0" shadow="0">
      <root>
        <mxCell id="0" />
        <mxCell id="1" parent="0" />
        <mxCell id="5M_T1YhkCwTiFixjT03w-3" value="" style="ellipse;html=1;shape=startState;fillColor=#000000;strokeColor=#ff0000;" parent="1" vertex="1">
          <mxGeometry x="410" y="10" width="30" height="30" as="geometry" />
        </mxCell>
        <mxCell id="5M_T1YhkCwTiFixjT03w-4" value="" style="edgeStyle=orthogonalEdgeStyle;html=1;verticalAlign=bottom;endArrow=open;endSize=8;strokeColor=#ff0000;rounded=0;" parent="1" source="5M_T1YhkCwTiFixjT03w-3" edge="1">
          <mxGeometry relative="1" as="geometry">
            <mxPoint x="425" y="60" as="targetPoint" />
          </mxGeometry>
        </mxCell>
        <mxCell id="5M_T1YhkCwTiFixjT03w-9" style="edgeStyle=orthogonalEdgeStyle;rounded=0;orthogonalLoop=1;jettySize=auto;html=1;" parent="1" source="5M_T1YhkCwTiFixjT03w-8" edge="1">
          <mxGeometry relative="1" as="geometry">
            <mxPoint x="425" y="130" as="targetPoint" />
          </mxGeometry>
        </mxCell>
        <mxCell id="5M_T1YhkCwTiFixjT03w-8" value="Login" style="rounded=0;whiteSpace=wrap;html=1;" parent="1" vertex="1">
          <mxGeometry x="365" y="60" width="120" height="40" as="geometry" />
        </mxCell>
        <mxCell id="5M_T1YhkCwTiFixjT03w-12" value="" style="edgeStyle=orthogonalEdgeStyle;rounded=0;orthogonalLoop=1;jettySize=auto;html=1;" parent="1" source="5M_T1YhkCwTiFixjT03w-10" target="5M_T1YhkCwTiFixjT03w-11" edge="1">
          <mxGeometry relative="1" as="geometry" />
        </mxCell>
        <mxCell id="5M_T1YhkCwTiFixjT03w-10" value="&lt;span&gt;Face Recognition&lt;/span&gt;" style="rounded=0;whiteSpace=wrap;html=1;" parent="1" vertex="1">
          <mxGeometry x="360" y="130" width="120" height="40" as="geometry" />
        </mxCell>
        <mxCell id="5M_T1YhkCwTiFixjT03w-23" value="" style="edgeStyle=orthogonalEdgeStyle;rounded=0;orthogonalLoop=1;jettySize=auto;html=1;" parent="1" source="5M_T1YhkCwTiFixjT03w-11" target="5M_T1YhkCwTiFixjT03w-22" edge="1">
          <mxGeometry relative="1" as="geometry" />
        </mxCell>
        <mxCell id="5M_T1YhkCwTiFixjT03w-11" value="Face Detection" style="rhombus;whiteSpace=wrap;html=1;rounded=0;" parent="1" vertex="1">
          <mxGeometry x="380" y="200" width="80" height="80" as="geometry" />
        </mxCell>
        <mxCell id="5M_T1YhkCwTiFixjT03w-20" value="" style="edgeStyle=elbowEdgeStyle;elbow=horizontal;endArrow=classic;html=1;curved=0;rounded=0;endSize=8;startSize=8;exitX=0;exitY=0.5;exitDx=0;exitDy=0;" parent="1" source="5M_T1YhkCwTiFixjT03w-11" edge="1">
          <mxGeometry width="50" height="50" relative="1" as="geometry">
            <mxPoint x="315" y="130" as="sourcePoint" />
            <mxPoint x="365" y="80" as="targetPoint" />
            <Array as="points">
              <mxPoint x="225" y="-40" />
            </Array>
          </mxGeometry>
        </mxCell>
        <mxCell id="5M_T1YhkCwTiFixjT03w-21" value="No" style="text;html=1;align=center;verticalAlign=middle;resizable=0;points=[];autosize=1;strokeColor=none;fillColor=none;" parent="1" vertex="1">
          <mxGeometry x="300" y="218" width="40" height="30" as="geometry" />
        </mxCell>
        <mxCell id="5M_T1YhkCwTiFixjT03w-26" value="" style="edgeStyle=orthogonalEdgeStyle;rounded=0;orthogonalLoop=1;jettySize=auto;html=1;" parent="1" source="5M_T1YhkCwTiFixjT03w-22" target="5M_T1YhkCwTiFixjT03w-25" edge="1">
          <mxGeometry relative="1" as="geometry" />
        </mxCell>
        <mxCell id="5M_T1YhkCwTiFixjT03w-40" value="" style="edgeStyle=orthogonalEdgeStyle;rounded=0;orthogonalLoop=1;jettySize=auto;html=1;" parent="1" source="5M_T1YhkCwTiFixjT03w-22" target="5M_T1YhkCwTiFixjT03w-39" edge="1">
          <mxGeometry relative="1" as="geometry" />
        </mxCell>
        <mxCell id="5M_T1YhkCwTiFixjT03w-48" value="" style="edgeStyle=orthogonalEdgeStyle;rounded=0;orthogonalLoop=1;jettySize=auto;html=1;" parent="1" source="5M_T1YhkCwTiFixjT03w-22" target="5M_T1YhkCwTiFixjT03w-47" edge="1">
          <mxGeometry relative="1" as="geometry" />
        </mxCell>
        <mxCell id="5M_T1YhkCwTiFixjT03w-22" value="I/P as Voice" style="whiteSpace=wrap;html=1;rounded=0;" parent="1" vertex="1">
          <mxGeometry x="360" y="310" width="120" height="30" as="geometry" />
        </mxCell>
        <mxCell id="5M_T1YhkCwTiFixjT03w-24" value="Yes" style="text;html=1;align=center;verticalAlign=middle;resizable=0;points=[];autosize=1;strokeColor=none;fillColor=none;" parent="1" vertex="1">
          <mxGeometry x="420" y="280" width="40" height="30" as="geometry" />
        </mxCell>
        <mxCell id="5M_T1YhkCwTiFixjT03w-28" value="" style="edgeStyle=orthogonalEdgeStyle;rounded=0;orthogonalLoop=1;jettySize=auto;html=1;" parent="1" source="5M_T1YhkCwTiFixjT03w-25" target="5M_T1YhkCwTiFixjT03w-27" edge="1">
          <mxGeometry relative="1" as="geometry" />
        </mxCell>
        <mxCell id="5M_T1YhkCwTiFixjT03w-25" value="Compose" style="whiteSpace=wrap;html=1;rounded=0;" parent="1" vertex="1">
          <mxGeometry x="-50" y="380" width="120" height="30" as="geometry" />
        </mxCell>
        <mxCell id="5M_T1YhkCwTiFixjT03w-30" value="" style="edgeStyle=orthogonalEdgeStyle;rounded=0;orthogonalLoop=1;jettySize=auto;html=1;" parent="1" source="5M_T1YhkCwTiFixjT03w-27" target="5M_T1YhkCwTiFixjT03w-29" edge="1">
          <mxGeometry relative="1" as="geometry" />
        </mxCell>
        <mxCell id="5M_T1YhkCwTiFixjT03w-27" value="System ask Recipients email" style="rounded=0;whiteSpace=wrap;html=1;" parent="1" vertex="1">
          <mxGeometry x="-50" y="440" width="120" height="35" as="geometry" />
        </mxCell>
        <mxCell id="5M_T1YhkCwTiFixjT03w-32" value="" style="edgeStyle=orthogonalEdgeStyle;rounded=0;orthogonalLoop=1;jettySize=auto;html=1;" parent="1" source="5M_T1YhkCwTiFixjT03w-29" target="5M_T1YhkCwTiFixjT03w-31" edge="1">
          <mxGeometry relative="1" as="geometry" />
        </mxCell>
        <mxCell id="5M_T1YhkCwTiFixjT03w-29" value="User Gives Recipients email" style="whiteSpace=wrap;html=1;rounded=0;" parent="1" vertex="1">
          <mxGeometry x="-50" y="500" width="120" height="40" as="geometry" />
        </mxCell>
        <mxCell id="5M_T1YhkCwTiFixjT03w-34" value="" style="edgeStyle=orthogonalEdgeStyle;rounded=0;orthogonalLoop=1;jettySize=auto;html=1;" parent="1" source="5M_T1YhkCwTiFixjT03w-31" target="5M_T1YhkCwTiFixjT03w-33" edge="1">
          <mxGeometry relative="1" as="geometry" />
        </mxCell>
        <mxCell id="5M_T1YhkCwTiFixjT03w-31" value="System asks subject , body and attachment" style="rounded=0;whiteSpace=wrap;html=1;" parent="1" vertex="1">
          <mxGeometry x="-50" y="570" width="120" height="40" as="geometry" />
        </mxCell>
        <mxCell id="5M_T1YhkCwTiFixjT03w-36" value="" style="edgeStyle=orthogonalEdgeStyle;rounded=0;orthogonalLoop=1;jettySize=auto;html=1;" parent="1" source="5M_T1YhkCwTiFixjT03w-33" target="5M_T1YhkCwTiFixjT03w-35" edge="1">
          <mxGeometry relative="1" as="geometry" />
        </mxCell>
        <mxCell id="5M_T1YhkCwTiFixjT03w-33" value="User provides the information &amp;amp; attachments" style="rounded=0;whiteSpace=wrap;html=1;" parent="1" vertex="1">
          <mxGeometry x="-50" y="640" width="120" height="40" as="geometry" />
        </mxCell>
        <mxCell id="5M_T1YhkCwTiFixjT03w-38" value="" style="edgeStyle=orthogonalEdgeStyle;rounded=0;orthogonalLoop=1;jettySize=auto;html=1;" parent="1" source="5M_T1YhkCwTiFixjT03w-35" target="5M_T1YhkCwTiFixjT03w-37" edge="1">
          <mxGeometry relative="1" as="geometry" />
        </mxCell>
        <mxCell id="5M_T1YhkCwTiFixjT03w-35" value="System asks confirmation to send" style="rounded=0;whiteSpace=wrap;html=1;" parent="1" vertex="1">
          <mxGeometry x="-50" y="700" width="120" height="40" as="geometry" />
        </mxCell>
        <mxCell id="5M_T1YhkCwTiFixjT03w-37" value="User gives confirmation" style="whiteSpace=wrap;html=1;rounded=0;" parent="1" vertex="1">
          <mxGeometry x="-50" y="770" width="120" height="60" as="geometry" />
        </mxCell>
        <mxCell id="5M_T1YhkCwTiFixjT03w-42" value="" style="edgeStyle=orthogonalEdgeStyle;rounded=0;orthogonalLoop=1;jettySize=auto;html=1;" parent="1" source="5M_T1YhkCwTiFixjT03w-39" target="5M_T1YhkCwTiFixjT03w-41" edge="1">
          <mxGeometry relative="1" as="geometry" />
        </mxCell>
        <mxCell id="5M_T1YhkCwTiFixjT03w-55" value="" style="edgeStyle=orthogonalEdgeStyle;rounded=0;orthogonalLoop=1;jettySize=auto;html=1;" parent="1" source="5M_T1YhkCwTiFixjT03w-39" target="5M_T1YhkCwTiFixjT03w-43" edge="1">
          <mxGeometry relative="1" as="geometry" />
        </mxCell>
        <mxCell id="5M_T1YhkCwTiFixjT03w-39" value="Read" style="whiteSpace=wrap;html=1;rounded=0;" parent="1" vertex="1">
          <mxGeometry x="360" y="380" width="120" height="30" as="geometry" />
        </mxCell>
        <mxCell id="5M_T1YhkCwTiFixjT03w-44" value="" style="edgeStyle=orthogonalEdgeStyle;rounded=0;orthogonalLoop=1;jettySize=auto;html=1;" parent="1" source="5M_T1YhkCwTiFixjT03w-41" target="5M_T1YhkCwTiFixjT03w-43" edge="1">
          <mxGeometry relative="1" as="geometry" />
        </mxCell>
        <mxCell id="5M_T1YhkCwTiFixjT03w-41" value="System lists unread mail" style="whiteSpace=wrap;html=1;rounded=0;" parent="1" vertex="1">
          <mxGeometry x="360" y="440" width="120" height="40" as="geometry" />
        </mxCell>
        <mxCell id="5M_T1YhkCwTiFixjT03w-46" value="" style="edgeStyle=orthogonalEdgeStyle;rounded=0;orthogonalLoop=1;jettySize=auto;html=1;" parent="1" source="5M_T1YhkCwTiFixjT03w-43" target="5M_T1YhkCwTiFixjT03w-45" edge="1">
          <mxGeometry relative="1" as="geometry" />
        </mxCell>
        <mxCell id="5M_T1YhkCwTiFixjT03w-43" value="user tells which mail to read" style="whiteSpace=wrap;html=1;rounded=0;" parent="1" vertex="1">
          <mxGeometry x="360" y="510" width="120" height="40" as="geometry" />
        </mxCell>
        <mxCell id="5M_T1YhkCwTiFixjT03w-45" value="System rweads email content to the user" style="whiteSpace=wrap;html=1;rounded=0;" parent="1" vertex="1">
          <mxGeometry x="360" y="620" width="120" height="60" as="geometry" />
        </mxCell>
        <mxCell id="5M_T1YhkCwTiFixjT03w-50" value="" style="edgeStyle=orthogonalEdgeStyle;rounded=0;orthogonalLoop=1;jettySize=auto;html=1;" parent="1" source="5M_T1YhkCwTiFixjT03w-47" target="5M_T1YhkCwTiFixjT03w-49" edge="1">
          <mxGeometry relative="1" as="geometry" />
        </mxCell>
        <mxCell id="5M_T1YhkCwTiFixjT03w-47" value="Delete" style="whiteSpace=wrap;html=1;rounded=0;" parent="1" vertex="1">
          <mxGeometry x="710" y="360" width="120" height="40" as="geometry" />
        </mxCell>
        <mxCell id="5M_T1YhkCwTiFixjT03w-52" value="" style="edgeStyle=orthogonalEdgeStyle;rounded=0;orthogonalLoop=1;jettySize=auto;html=1;" parent="1" source="5M_T1YhkCwTiFixjT03w-49" target="5M_T1YhkCwTiFixjT03w-51" edge="1">
          <mxGeometry relative="1" as="geometry" />
        </mxCell>
        <mxCell id="5M_T1YhkCwTiFixjT03w-49" value="System list email in spam" style="whiteSpace=wrap;html=1;rounded=0;" parent="1" vertex="1">
          <mxGeometry x="710" y="470" width="120" height="40" as="geometry" />
        </mxCell>
        <mxCell id="5M_T1YhkCwTiFixjT03w-54" value="" style="edgeStyle=orthogonalEdgeStyle;rounded=0;orthogonalLoop=1;jettySize=auto;html=1;" parent="1" source="5M_T1YhkCwTiFixjT03w-51" target="5M_T1YhkCwTiFixjT03w-53" edge="1">
          <mxGeometry relative="1" as="geometry" />
        </mxCell>
        <mxCell id="5M_T1YhkCwTiFixjT03w-51" value="User selects mail" style="whiteSpace=wrap;html=1;rounded=0;" parent="1" vertex="1">
          <mxGeometry x="710" y="580" width="120" height="40" as="geometry" />
        </mxCell>
        <mxCell id="5M_T1YhkCwTiFixjT03w-53" value="System asksconfirmation for delete" style="whiteSpace=wrap;html=1;rounded=0;" parent="1" vertex="1">
          <mxGeometry x="710" y="690" width="120" height="50" as="geometry" />
        </mxCell>
        <mxCell id="5M_T1YhkCwTiFixjT03w-56" value="" style="ellipse;html=1;shape=endState;fillColor=#000000;strokeColor=#ff0000;" parent="1" vertex="1">
          <mxGeometry x="410" y="760" width="30" height="30" as="geometry" />
        </mxCell>
        <mxCell id="5M_T1YhkCwTiFixjT03w-57" value="" style="edgeStyle=segmentEdgeStyle;endArrow=classic;html=1;curved=0;rounded=0;endSize=8;startSize=8;exitX=0.613;exitY=1.003;exitDx=0;exitDy=0;exitPerimeter=0;" parent="1" source="5M_T1YhkCwTiFixjT03w-37" edge="1">
          <mxGeometry width="50" height="50" relative="1" as="geometry">
            <mxPoint x="375" y="840" as="sourcePoint" />
            <mxPoint x="425" y="790" as="targetPoint" />
            <Array as="points">
              <mxPoint x="24" y="850" />
              <mxPoint x="425" y="850" />
            </Array>
          </mxGeometry>
        </mxCell>
        <mxCell id="5M_T1YhkCwTiFixjT03w-60" style="edgeStyle=orthogonalEdgeStyle;rounded=0;orthogonalLoop=1;jettySize=auto;html=1;entryX=0.5;entryY=0;entryDx=0;entryDy=0;exitX=0.423;exitY=1.075;exitDx=0;exitDy=0;exitPerimeter=0;" parent="1" target="5M_T1YhkCwTiFixjT03w-56" edge="1">
          <mxGeometry relative="1" as="geometry">
            <mxPoint x="445" y="680" as="sourcePoint" />
            <mxPoint x="440" y="707" as="targetPoint" />
            <Array as="points">
              <mxPoint x="425" y="680" />
            </Array>
          </mxGeometry>
        </mxCell>
        <mxCell id="5M_T1YhkCwTiFixjT03w-61" style="edgeStyle=orthogonalEdgeStyle;rounded=0;orthogonalLoop=1;jettySize=auto;html=1;exitX=0.5;exitY=1;exitDx=0;exitDy=0;entryX=1;entryY=0.5;entryDx=0;entryDy=0;" parent="1" source="5M_T1YhkCwTiFixjT03w-53" target="5M_T1YhkCwTiFixjT03w-56" edge="1">
          <mxGeometry relative="1" as="geometry">
            <mxPoint x="540" y="653" as="sourcePoint" />
            <mxPoint x="450" y="790" as="targetPoint" />
            <Array as="points">
              <mxPoint x="770" y="775" />
            </Array>
          </mxGeometry>
        </mxCell>
      </root>
    </mxGraphModel>
  </diagram>
</mxfile>
